<svg width="54" height="55" viewBox="0 0 54 55" fill="none" xmlns="http://www.w3.org/2000/svg">
<g clip-path="url(#clip0_1_25)">
<path d="M40 62V27.033L46 19V62H40Z" stroke="#131313"/>
<path d="M12.5 35.5L31 62H12.5H5.5V25.5L11 20L22.3667 36.5L44 5.5L49 10.5L26.5 42.5L22.3667 36.5L11 20L5.5 25.5L12.5 35.5Z" fill="#100F0F"/>
<path d="M5.5 25.5V62H12.5H31L12.5 35.5L5.5 25.5ZM5.5 25.5L11 20L22.3667 36.5M22.3667 36.5L26.5 42.5L49 10.5L44 5.5L22.3667 36.5Z" stroke="black"/>
</g>
<defs>
<clipPath id="clip0_1_25">
<rect width="54" height="55" rx="10" fill="white"/>
</clipPath>
</defs>
</svg>
